# xmcd CD database file
#
# Track frame offsets:
#	150
#	54292
#	59213
#	104439
#	153667
#	208595
#	254010
#	258603
#	313018
#	325348
#
# Disc length: 4686 seconds
#
# Revision: 0
# Processed by: cddbd v1.5.2PL0 Copyright (c) Steve Scherf et al.
# Submitted via: CDex 1.70beta2
#
DISCID=9c124c0a
DTITLE=Thelonious Monk Quartet - Sthe Last Concerts CD 2
DYEAR=2009
DGENRE=Jazz
TTITLE0=Hackensack
TTITLE1=Epistrophy
TTITLE2=Evidence
TTITLE3=Blue Monk
TTITLE4=Rhythm-a-ning
TTITLE5=Bright Mississippi
TTITLE6=Epistrophy
TTITLE7=Blue Monk
TTITLE8=Crepuscule with Nellie
TTITLE9=Rhythm-a-ning
EXTD=YEAR: 2009
EXTT0=
EXTT1=
EXTT2=
EXTT3=
EXTT4=
EXTT5=
EXTT6=
EXTT7=
EXTT8=
EXTT9=
PLAYORDER=
